<svg enable-background="new 0 0 1024 159.7" viewBox="0 0 1024 159.7" xmlns="http://www.w3.org/2000/svg"><g fill="#ee8009"><path d="m185.1 0h-169.8c-8.4 0-15.3 5.4-15.3 12v144.7c0 1.6 1.7 3 3.8 3h23c2.1 0 3.8-1.3 3.8-3v-60.8h154.5c2.1 0 3.8-1.3 3.8-3v-24c0-1.6-1.7-3-3.8-3h-154.5v-35.9h154.5c2.1 0 3.8-1.3 3.8-3v-24c0-.8-.4-1.6-1.1-2.1-.8-.6-1.7-.9-2.7-.9z"/><path d="m424.1.1h-139.2c-2.2 0-4 1.8-4 4v24.1c0 2.2 1.8 4 4 4h123.1v32h-143.1c-8.8 0-16 7.2-16 16.1v63.3c0 8.9 7.2 16 16 16h159.2c8.9 0 16.1-7.2 16.1-16v-127.4c-.1-8.9-7.2-16.1-16.1-16.1zm-16 127.4h-127.1v-31.5h127.1z"/><path d="m500.1 16.2v139.5c0 1.1.4 2 1.2 2.8.7.8 1.7 1.2 2.8 1.2h24.1c2.2 0 4-1.8 4-4v-123.5h123.2c2.2 0 3.9-1.8 3.9-4v-24.1c0-2.2-1.8-4-3.9-4h-139.2c-8.9 0-16.1 7.2-16.1 16.1zm12.2-11.4c0 .1 0 .1 0 0z"/><path d="m735.3 159.6h34.6c2.2 0 3.9-1.8 3.9-4v-24.1c0-2.2-1.8-4-3.9-4h-18.6v-123.4c0-2.2-1.8-4-4-4h-24.1c-1.1 0-2.1.4-2.8 1.2-.8.8-1.2 1.7-1.2 2.8v139.5c0 8.8 7.3 16 16.1 16zm-3.9-4.8s0 .1 0 0z"/><path d="m1017.1.3-21-.2c-5.2 0-4.1 12.6-4.1 12.6l-.3 51.5h-143.2c-8.8 0-16 7.2-16 16.1v63.3c0 8.9 7.2 16 16 16h159.2c8.9 0 16.1-7.2 16.1-16v-127.4c0-8.9 2.2-15.9-6.7-15.9zm-27.2 127.2h-127.1v-31.5h127.1z"/></g></svg>